<svg width="15" height="20" viewBox="0 0 15 20" fill="none" xmlns="http://www.w3.org/2000/svg">
<path fill-rule="evenodd" clip-rule="evenodd" d="M14.7372 12.9266C14.5728 16.8527 11.3391 19.9856 7.37255 19.9856C3.30079 19.9856 5.17533e-06 16.5738 5.17533e-06 12.6131C5.17533e-06 12.0837 -0.00948506 11.0256 0.784319 9.24051C1.25938 8.1722 1.55734 7.50106 1.7255 6.88757C1.81789 6.5504 1.99757 6.01471 2.50981 6.88757C2.81185 7.40224 2.82353 8.14248 2.82353 8.14248C2.82353 8.14248 3.9473 7.28012 4.70589 5.63267C5.81797 3.21753 4.93067 1.77385 4.62746 0.769926C4.52251 0.422632 4.45663 -0.201525 5.17648 0.0640435C5.90997 0.33471 7.8491 1.69212 8.86275 3.12287C10.3094 5.16483 10.8235 7.12287 10.8235 7.12287C10.8235 7.12287 11.2867 6.54797 11.451 5.9464C11.6365 5.2671 11.6392 4.59432 12.2352 5.31902C12.802 6.0082 13.6438 7.30334 14.1177 8.53463C14.978 10.7706 14.7372 12.9266 14.7372 12.9266Z" fill="url(#paint0_linear_2112_499)"/>
<defs>
<linearGradient id="paint0_linear_2112_499" x1="7.38361" y1="20.0004" x2="7.38361" y2="0.0151022" gradientUnits="userSpaceOnUse">
<stop stop-color="#FF4C0D"/>
<stop offset="1" stop-color="#FC9502"/>
</linearGradient>
</defs>
</svg>
